<svg width="126" height="26" viewBox="0 0 126 26" fill="none" xmlns="http://www.w3.org/2000/svg">
<path d="M18.1038 25.131C17.4674 25.3471 16.7103 25.5309 15.8326 25.6822C14.9768 25.8335 13.9564 25.9092 12.7714 25.9092C10.8842 25.9092 9.15064 25.6066 7.57067 25.0012C6.01265 24.3743 4.67407 23.4988 3.55493 22.3747C2.43578 21.2289 1.55802 19.867 0.921647 18.2888C0.307216 16.6891 0 14.9164 0 12.9708C0 11.0684 0.307216 9.32818 0.921647 7.75006C1.55802 6.15033 2.43578 4.78839 3.55493 3.66425C4.67407 2.5185 6.01265 1.63216 7.57067 1.00524C9.15064 0.378314 10.8842 0.0648532 12.7714 0.0648532C13.7589 0.0648532 14.7134 0.129707 15.6351 0.259415C16.5567 0.367505 17.4125 0.540449 18.2025 0.778249C18.5098 0.886339 18.6634 1.01605 18.6634 1.16737C18.6853 1.3187 18.6963 1.50245 18.6963 1.71863L18.6304 4.50736C18.6304 4.87486 18.5427 5.08024 18.3671 5.12347C18.1916 5.16671 17.9063 5.13428 17.5113 5.02619C16.5238 4.74516 15.6351 4.5614 14.8451 4.47493C14.0771 4.36684 13.2761 4.31279 12.4422 4.31279C11.2134 4.31279 10.1052 4.52898 9.11772 4.96134C8.15219 5.37208 7.32929 5.96657 6.64903 6.74482C5.96876 7.50145 5.44211 8.40941 5.06906 9.46869C4.71796 10.528 4.5424 11.6954 4.5424 12.9708C4.5424 14.2247 4.7399 15.3812 5.13489 16.4405C5.52988 17.4782 6.07848 18.3861 6.78069 19.1644C7.4829 19.921 8.3058 20.5371 9.24939 21.0127C10.2149 21.4667 11.2682 21.7477 12.4093 21.8558C13.4626 21.9639 14.4721 21.9315 15.4376 21.7585C16.4031 21.564 17.1931 21.3586 17.8075 21.1424C18.0928 21.0343 18.2793 21.0127 18.3671 21.0776C18.4549 21.1208 18.5098 21.2505 18.5317 21.4667L18.6963 24.3851C18.7182 24.6229 18.6853 24.7851 18.5975 24.8715C18.5098 24.958 18.3452 25.0445 18.1038 25.131Z" fill="#2A1812"/>
<path fill-rule="evenodd" clip-rule="evenodd" d="M32.5827 25.5201C32.3852 25.5201 32.2535 25.4985 32.1877 25.4552C32.1438 25.412 32.1219 25.2823 32.1219 25.0661V23.6717C31.7488 24.2554 31.1344 24.7526 30.2786 25.1634C29.4447 25.5741 28.6108 25.7795 27.777 25.7795C26.8773 25.7795 26.0105 25.6606 25.1766 25.4228C24.3427 25.1634 23.6515 24.7743 23.1029 24.2554C22.5762 23.715 22.1593 23.0772 21.8521 22.3422C21.5449 21.5856 21.3913 20.7317 21.3913 19.7805C21.3913 18.6564 21.6656 17.6403 22.2142 16.7324C22.7628 15.8244 23.4869 15.1218 24.3866 14.6246C25.3083 14.1058 26.3945 13.7383 27.6453 13.5221C28.8961 13.2843 30.2786 13.2086 31.7927 13.2951C31.6611 11.5873 30.915 10.6469 29.5544 10.4739C29.1155 10.4307 28.6657 10.4415 28.2049 10.5064C27.766 10.5712 27.3271 10.6793 26.8882 10.8306C26.4713 10.9603 26.0653 11.1225 25.6703 11.317C25.2754 11.49 24.9242 11.6737 24.617 11.8683C24.1562 12.1709 23.827 12.3223 23.6296 12.3223C23.4321 12.3223 23.3333 12.1061 23.3333 11.6737V8.98229C23.3333 8.70125 23.3553 8.50669 23.3991 8.3986C23.465 8.26889 23.6296 8.13918 23.8929 8.00948C24.5512 7.68521 25.3192 7.38256 26.197 7.10152C27.0967 6.82049 28.15 6.67997 29.3569 6.67997C31.5952 6.67997 33.263 7.24204 34.3602 8.36618C35.4793 9.49031 36.0389 11.2306 36.0389 13.5869V22.9259C36.0608 23.2718 36.0718 23.6069 36.0718 23.9312C36.0937 24.2338 36.1157 24.504 36.1376 24.7418C36.1815 25.1742 36.1596 25.412 36.0718 25.4552C35.984 25.4985 35.8304 25.5201 35.611 25.5201H32.5827ZM32.1219 16.5702C30.8711 16.5918 29.8397 16.6891 29.0278 16.8621C28.2158 17.0134 27.5575 17.2296 27.0528 17.5106C26.57 17.7916 26.2409 18.1267 26.0653 18.5158C25.8898 18.905 25.802 19.3373 25.802 19.8129C25.802 20.5047 26.0105 21.0451 26.4274 21.4343C26.8443 21.8018 27.4259 21.9855 28.172 21.9855C29.3569 21.9855 30.3005 21.564 31.0027 20.7209C31.7269 19.8562 32.0999 18.4726 32.1219 16.5702Z" fill="#2A1812"/>
<path d="M44.9565 25.3255C44.8688 25.412 44.7042 25.4552 44.4628 25.4552H41.4016C41.1383 25.4552 40.9627 25.4012 40.875 25.2931C40.7872 25.185 40.7433 25.0121 40.7433 24.7743V9.5984C40.7652 8.7553 40.7433 8.11757 40.6775 7.68521C40.6336 7.44741 40.6555 7.29608 40.7433 7.23123C40.8311 7.16637 41.0286 7.13395 41.3358 7.13395H44.4628C44.7042 7.13395 44.8578 7.15557 44.9236 7.1988C44.9895 7.24204 45.0224 7.36094 45.0224 7.5555V8.78773C45.4832 8.31213 46.0757 7.87977 46.7998 7.49065C47.5459 7.0799 48.303 6.87453 49.071 6.87453C51.2654 6.87453 52.8673 7.49065 53.8768 8.72287C54.9081 9.9551 55.4238 11.7494 55.4238 14.1058V24.8067C55.4238 25.0661 55.3799 25.239 55.2922 25.3255C55.2044 25.412 55.0398 25.4552 54.7984 25.4552H51.7372C51.2983 25.4552 51.0789 25.2282 51.0789 24.7743V14.7543C51.0789 12.1385 50.278 10.8306 48.676 10.8306C47.5569 10.8306 46.6791 11.1873 46.0428 11.9007C45.4064 12.6141 45.0882 13.5869 45.0882 14.8192V24.8067C45.0882 25.0661 45.0443 25.239 44.9565 25.3255Z" fill="#2A1812"/>
<path d="M72.6535 23.6717C72.083 24.2987 71.3259 24.8175 70.3823 25.2282C69.4387 25.6174 68.4732 25.8552 67.4857 25.9416C66.9591 26.0065 66.3556 26.0173 65.6753 25.9741C65.017 25.9308 64.3697 25.8552 63.7333 25.7471C63.0969 25.6606 62.5154 25.5633 61.9888 25.4552C61.4621 25.3255 61.0671 25.2066 60.8038 25.0985C60.5624 24.9904 60.4088 24.8932 60.3429 24.8067C60.2771 24.6986 60.2661 24.5148 60.31 24.2554L60.6392 21.11C60.6611 20.8938 60.705 20.7641 60.7709 20.7209C60.8586 20.6776 61.0342 20.7101 61.2975 20.8182C61.7145 20.9911 62.1862 21.1532 62.7129 21.3046C63.2615 21.4343 63.8101 21.5424 64.3587 21.6288C64.9292 21.6937 65.4778 21.7369 66.0045 21.7585C66.5531 21.7802 67.0468 21.7369 67.4857 21.6288C68.4074 21.4127 69.0657 21.056 69.4607 20.5587C69.8557 20.0615 70.0532 19.3481 70.0532 18.4186C70.0532 18.224 70.0093 17.997 69.9215 17.7376C69.8337 17.4782 69.6691 17.1971 69.4278 16.8945C69.1864 16.5702 68.8572 16.2351 68.4403 15.8892C68.0453 15.5434 67.5296 15.1759 66.8932 14.7867C65.6863 14.0517 64.6549 13.3707 63.7991 12.7438C62.9653 12.1169 62.274 11.5008 61.7254 10.8955C61.1988 10.2686 60.8038 9.63083 60.5405 8.98229C60.2991 8.33375 60.1784 7.62035 60.1784 6.8421C60.1784 5.86929 60.3759 4.97215 60.7709 4.15066C61.1878 3.30756 61.7474 2.58335 62.4496 1.97805C63.1737 1.35113 64.0186 0.864721 64.9841 0.518832C65.9496 0.172944 66.992 0 68.1111 0C69.2303 0 70.1848 0.0864716 70.9748 0.259415C71.7867 0.410742 72.456 0.605304 72.9827 0.843102C73.268 0.972811 73.4216 1.0809 73.4435 1.16737C73.4874 1.25384 73.4874 1.41598 73.4435 1.65378L72.8181 4.41008C72.7742 4.60464 72.6974 4.72354 72.5877 4.76677C72.478 4.81001 72.2585 4.77758 71.9294 4.66949C70.898 4.34522 69.9434 4.15066 69.0657 4.08581C68.2099 4.02095 67.4638 4.09661 66.8274 4.31279C66.191 4.52898 65.6863 4.87486 65.3133 5.35046C64.9622 5.80444 64.7866 6.38813 64.7866 7.10152C64.7866 7.62035 65.017 8.14999 65.4778 8.69045C65.9606 9.2309 66.7287 9.81458 67.782 10.4415C69.1205 11.263 70.2287 11.998 71.1065 12.6465C72.0062 13.2951 72.7194 13.9328 73.246 14.5597C73.7727 15.165 74.1457 15.792 74.3652 16.4405C74.5846 17.0674 74.6943 17.77 74.6943 18.5483C74.6943 19.5859 74.5078 20.5263 74.1347 21.3694C73.7836 22.2125 73.2899 22.98 72.6535 23.6717Z" fill="#2A1812"/>
<path fill-rule="evenodd" clip-rule="evenodd" d="M92.9601 16.9918C92.9382 17.2512 92.8723 17.4566 92.7626 17.6079C92.6748 17.7376 92.4993 17.8024 92.236 17.8024H81.9333C82.0869 19.2509 82.5477 20.3209 83.3157 21.0127C84.1057 21.7045 85.0383 22.072 86.1136 22.1152C87.123 22.1585 88.0008 22.0612 88.7469 21.8234C89.5149 21.5856 90.25 21.2505 90.9522 20.8182C91.2595 20.6236 91.4679 20.5696 91.5776 20.656C91.6874 20.7425 91.7422 20.9695 91.7422 21.337V23.769C91.7422 24.0068 91.7093 24.169 91.6435 24.2554C91.5996 24.3419 91.4789 24.4608 91.2814 24.6121C90.645 25.0445 89.8331 25.3688 88.8456 25.5849C87.8801 25.8011 86.9255 25.9092 85.9819 25.9092C83.3486 25.9092 81.264 25.0769 79.7279 23.4123C78.2138 21.7477 77.4567 19.3806 77.4567 16.3108C77.4567 15.165 77.6103 14.0193 77.9175 12.8735C78.2247 11.7278 78.7185 10.7009 79.3987 9.79296C80.079 8.86339 80.9129 8.11757 81.9003 7.5555C82.8878 6.97181 84.0618 6.67997 85.4224 6.67997C86.8048 6.67997 87.9678 6.92858 88.9114 7.42579C89.877 7.92301 90.656 8.59316 91.2485 9.43627C91.8629 10.2794 92.3018 11.263 92.5651 12.3871C92.8284 13.4896 92.9601 14.6678 92.9601 15.9217V16.9918ZM85.5211 10.4415C85.0603 10.4415 84.6324 10.5496 84.2374 10.7658C83.8424 10.982 83.4913 11.263 83.1841 11.6089C82.8988 11.9548 82.6464 12.3547 82.427 12.8087C82.2076 13.2627 82.0649 13.7383 81.9991 14.2355H88.681C88.681 13.8031 88.6042 13.3599 88.4506 12.906C88.319 12.452 88.1215 12.052 87.8581 11.7062C87.6167 11.3387 87.2986 11.036 86.9036 10.7982C86.5086 10.5604 86.0478 10.4415 85.5211 10.4415Z" fill="#2A1812"/>
<path d="M102.195 19.4076C101.87 19.4076 101.607 19.6668 101.607 19.9866C101.607 20.3064 101.87 20.5657 102.195 20.5657H104.546C104.87 20.5657 105.134 20.3064 105.134 19.9866C105.134 19.6668 104.87 19.4076 104.546 19.4076H102.195Z" fill="#2A1812"/>
<path d="M101.607 17.6704C101.607 17.3506 101.87 17.0914 102.195 17.0914H104.546C104.87 17.0914 105.134 17.3506 105.134 17.6704C105.134 17.9902 104.87 18.2495 104.546 18.2495H102.195C101.87 18.2495 101.607 17.9902 101.607 17.6704Z" fill="#2A1812"/>
<path d="M102.195 14.7751C101.87 14.7751 101.607 15.0344 101.607 15.3542C101.607 15.674 101.87 15.9333 102.195 15.9333H104.546C104.87 15.9333 105.134 15.674 105.134 15.3542C105.134 15.0344 104.87 14.7751 104.546 14.7751H102.195Z" fill="#2A1812"/>
<path fill-rule="evenodd" clip-rule="evenodd" d="M96.6107 2.32548C96.6107 1.36607 97.4002 0.58832 98.3741 0.58832H108.073C109.046 0.58832 109.836 1.36607 109.836 2.32548V23.7505C109.836 24.7099 109.046 25.4876 108.073 25.4876H98.3741C97.4002 25.4876 96.6107 24.7099 96.6107 23.7505V2.32548ZM100.137 22.0133V4.06264H106.309V22.0133H100.137Z" fill="#2A1812"/>
<path d="M117.771 19.9866C117.771 19.6668 118.034 19.4076 118.359 19.4076H120.71C121.035 19.4076 121.298 19.6668 121.298 19.9866C121.298 20.3064 121.035 20.5657 120.71 20.5657H118.359C118.034 20.5657 117.771 20.3064 117.771 19.9866Z" fill="#2A1812"/>
<path d="M118.359 17.0914C118.034 17.0914 117.771 17.3506 117.771 17.6704C117.771 17.9902 118.034 18.2495 118.359 18.2495H120.71C121.035 18.2495 121.298 17.9902 121.298 17.6704C121.298 17.3506 121.035 17.0914 120.71 17.0914H118.359Z" fill="#2A1812"/>
<path d="M117.771 15.3542C117.771 15.0344 118.034 14.7751 118.359 14.7751H120.71C121.035 14.7751 121.298 15.0344 121.298 15.3542C121.298 15.674 121.035 15.9333 120.71 15.9333H118.359C118.034 15.9333 117.771 15.674 117.771 15.3542Z" fill="#2A1812"/>
<path fill-rule="evenodd" clip-rule="evenodd" d="M114.538 0.58832C113.564 0.58832 112.775 1.36607 112.775 2.32548V23.7505C112.775 24.7099 113.564 25.4876 114.538 25.4876H124.237C125.211 25.4876 126 24.7099 126 23.7505V2.32548C126 1.36607 125.211 0.58832 124.237 0.58832H114.538ZM116.302 4.06264V22.0133H122.473V4.06264H116.302Z" fill="#2A1812"/>
</svg>
