<svg width="41" height="40" viewBox="0 0 41 40" fill="none" xmlns="http://www.w3.org/2000/svg">
<path d="M37.1654 27.9002V7.78349C37.1654 5.78349 35.532 4.30015 33.5487 4.46682H33.4487C29.9487 4.76682 24.632 6.55015 21.6654 8.41682L21.382 8.60015C20.8987 8.90015 20.0987 8.90015 19.6154 8.60015L19.1987 8.35015C16.232 6.50015 10.932 4.73349 7.43203 4.45015C5.4487 4.28349 3.83203 5.78348 3.83203 7.76682V27.9002C3.83203 29.5002 5.13203 31.0002 6.73203 31.2002L7.21537 31.2668C10.832 31.7502 16.4154 33.5835 19.6154 35.3335L19.682 35.3668C20.132 35.6168 20.8487 35.6168 21.282 35.3668C24.482 33.6002 30.082 31.7502 33.7154 31.2668L34.2654 31.2002C35.8654 31.0002 37.1654 29.5002 37.1654 27.9002Z" stroke="#2A1812" stroke-width="2" stroke-linecap="round" stroke-linejoin="round"/>
<path d="M20.5 9.1499V34.1499" stroke="#2A1812" stroke-width="2" stroke-linecap="round" stroke-linejoin="round"/>
<path d="M13.418 14.1499H9.66797" stroke="#2A1812" stroke-width="2" stroke-linecap="round" stroke-linejoin="round"/>
<path d="M14.668 19.1499H9.66797" stroke="#2A1812" stroke-width="2" stroke-linecap="round" stroke-linejoin="round"/>
</svg>
